<?xml version="1.0" encoding="utf-8"?>
<!-- Generator: Adobe Illustrator 23.1.0, SVG Export Plug-In . SVG Version: 6.00 Build 0)  -->
<svg version="1.1" id="Camada_1" xmlns="http://www.w3.org/2000/svg" xmlns:xlink="http://www.w3.org/1999/xlink" x="0px" y="0px"
	 viewBox="0 0 2257 428.6" style="enable-background:new 0 0 2257 428.6;" xml:space="preserve">
<style type="text/css">
	.st0{clip-path:url(#SVGID_2_);fill-rule:evenodd;clip-rule:evenodd;fill:#00163D;}
	.st1{clip-path:url(#SVGID_2_);fill-rule:evenodd;clip-rule:evenodd;fill:#A3282A;}
	.st2{clip-path:url(#SVGID_2_);fill:#A3282A;}
</style>
<g>
	<defs>
		<rect id="SVGID_1_" x="-19.4" y="-19.4" width="2304" height="481.9"/>
	</defs>
	<clipPath id="SVGID_2_">
		<use xlink:href="#SVGID_1_"  style="overflow:visible;"/>
	</clipPath>
	<path class="st0" d="M636.5,96H532.3v33h64.3c-5.4,18.5-28,33-50.2,33c-30.6,0-55.9-26.4-55.9-56.1c0-29.7,25.2-55.8,55.9-55.8
		c18.6,0,35.4,11.6,46,26.4l32-18.8c-17-25.4-46-41.8-78-41.8c-51.1,0-92.9,40.6-92.9,90.1c0,49.7,41.7,90.1,92.9,90.1
		c46.4,0,86.3-31.6,90-76c0.2-3.6,0.5-6.9,0.5-10C637,106.2,636.7,100.7,636.5,96"/>
	<polygon class="st0" points="1041.2,93.8 1160.2,198.1 1160.2,19.2 1123,19.2 1123,119.5 1004.2,13.5 1004.2,192.7 1041.2,192.7 	
		"/>
	<path class="st0" d="M694.2,192.7v-54.2h25.5c14.1,19,27.1,36.4,41.2,54.2h44.5c-13.9-18.5-29.7-39.4-44.5-58.2
		c21.4-9.3,35.1-29.9,35.1-55.1c0-35.6-25.2-60.4-62.2-60.4h-76.6v173.7H694.2z M694.2,105.9V51.5h39.6c21.9,0,25.2,18.8,25.2,27.8
		c0,18.1-13.7,26.6-25.2,26.6H694.2z M808.8,192.7h41l13.2-26.6h80.4l13.7,26.6h40.8L903.4,13.5L808.8,192.7z M881.4,134l21.9-45.4
		l22.2,45.4H881.4z"/>
	<path class="st1" d="M217.5,2.1C100.4,2.1,5.4,97.1,5.4,214.3c0,117.2,95,212.2,212.2,212.2c117.2,0,212.2-95,212.2-212.2
		C429.7,97.1,334.7,2.1,217.5,2.1z M350.2,344.1c-30.9,31.4-74.1,46.9-129.6,46.4c-27.3-0.3-51.6-4.5-72.7-12.9
		c-21.2-8.3-40.1-21-56.6-37.9c-15.9-16.1-28-35.2-36.7-57.1c-8.6-21.9-12.8-44.9-12.5-68.8c0.2-24.9,4.8-47.8,13.5-68.7
		c8.8-20.9,21.7-39.5,39-56.1c17-16.1,36.6-28.2,58.5-36.5c21.9-8.1,45.5-12.1,70.9-11.9c33,0.3,63.2,5.1,87.3,20.3
		c58.7,37.1,74.9,90.8,75.8,95l-92.3,0.5c-9.4-13-20-22.7-31.8-29.1c-11.9-6.4-25.1-9.7-39.8-9.9c-27.5-0.3-49.2,8.6-65.1,26.6
		c-16,18.1-24.1,42.9-24.4,74.3c-0.3,31.8,7.4,57,23,75.4c15.6,18.5,37.1,27.8,64.6,28.1c23.2,0.2,42.8-5.3,58.4-16.5
		c15.6-11.2,24.9-26.2,27.7-45.1l-91.3-0.9l0.7-70.1l178.6,1.7c0.1,2.3,0.5,4.6,0.9,7.9c0.7,4.8,0.6,6.5,1.1,11.8
		C401.4,261.3,381.1,312.7,350.2,344.1z"/>
	<path class="st2" d="M583.6,401c-11.4,5.4-24.1,8.1-38.3,8.1c-25.2,0-46.4-8.8-63.9-26.3c-17.7-17.6-26.6-38.8-26.6-63.9
		c0-24.9,8.9-46.2,26.6-64.1c17.6-17.8,38.8-26.7,63.9-26.7c24.9,0,46.3,8.9,64.1,26.7c17.8,17.9,26.7,39.3,26.7,64.1
		c0,22.1-7,41.3-21,57.8c7.2,2.5,16.1,4.1,26.8,4.8l-2.9,35C614.9,414.8,597.8,410.2,583.6,401 M555.2,330.1
		c8.9,4.7,21.6,14.8,30.4,24.7c9.3-10.2,13.9-22.3,13.9-36.3c0-14.9-5.3-27.7-15.9-38.3c-10.8-10.6-23.6-15.9-38.4-15.9
		c-15.1,0-27.8,5.3-38.3,15.9c-10.6,10.6-15.9,23.4-15.9,38.3c0,15.1,5.3,27.9,15.9,38.4c10.5,10.6,23.2,15.9,38.3,15.9
		c2.5,0,5.2-0.2,8.2-0.6c-5.8-5.2-10.6-8.9-14.6-11.1c-4.2-2.1-9-3.4-14.3-3.8l2.1-35.2C537.2,323.1,546.8,325.7,555.2,330.1"/>
	<path class="st2" d="M765.5,337.4V229.5h36.1v108c0,19.9-7,36.9-21.1,51c-14.2,14-31.1,21-50.9,21c-20,0-37-7-51.1-21
		c-14.1-14.1-21.1-31.1-21.1-51v-108h36.1v107.9c0,19.5,16.5,35.9,36.1,35.9C748.9,373.3,765.5,356.8,765.5,337.4"/>
	<polygon class="st2" points="931.3,229.1 931.3,264.8 859.6,264.8 859.6,300.8 913.4,300.8 913.4,336.6 859.6,336.6 859.6,372.5 
		931.3,372.5 931.3,408.2 823.7,408.2 823.7,229.1 	"/>
	<path class="st2" d="M996.5,372.8c9.9,0,20.8-8.2,20.8-18.1c0-16.3-21.9-18.6-34.2-22.8c-21.8-7.4-41-25.3-41-49.6
		c0-30.1,24.4-54.3,54.5-54.3c27.4,0,50.2,20.3,53.8,46.8l-35.6,7.5c0-9.8-8.2-18-18-18c-10,0-18.2,8.2-18.2,18.1
		c0,16.1,20.3,20.3,32.7,24c22.5,6.5,42.4,23.6,42.4,48.5c0,30.1-27,54.4-57,54.4c-27.6,0-52.5-20.2-56.6-46.8l35.6-7.6
		c0,10,10.8,18.1,20.9,18.1L996.5,372.8z"/>
	<polygon class="st2" points="1186.4,229.5 1186.4,265.1 1142.6,265.1 1142.6,408 1106.6,408 1106.6,265.1 1062.7,265.1 
		1062.7,229.5 	"/>
	<path class="st2" d="M1482,264.8v-35.7h-75.5c0,0.1,0,0.3,0,0.4c0,4.1-2.4,7.8-6.1,9.4c-9.7,4.1-18.2,9.6-26,16.1v153.2H1482v-35.6
		h-71.7v-36h53.8v-35.7h-53.8v-36H1482z"/>
	<path class="st2" d="M1547.2,372.8c9.9,0,20.8-8.2,20.8-18.1c0-16.3-21.9-18.6-34.2-22.8c-21.8-7.4-41-25.3-41-49.6
		c0-30.1,24.4-54.3,54.5-54.3c27.4,0,50.2,20.3,53.8,46.8l-35.6,7.5c0-9.8-8.2-18-18-18c-10,0-18.2,8.2-18.2,18.1
		c0,16.1,20.3,20.3,32.7,24c22.5,6.5,42.4,23.6,42.4,48.5c0,30.1-27,54.4-57,54.4c-27.6,0-52.5-20.2-56.6-46.8l35.6-7.6
		c0,10,10.8,18.1,20.9,18.1L1547.2,372.8z"/>
	<path class="st2" d="M1282.9,370.9c-4.5-5.2-8.5-9.8-12.4-14.4c-13.1-15.3-26.2-30.6-39.2-46c-3.6-4.2-3.6-4.2,0.8-7.4
		c7.4-5.4,14.9-10.8,22.3-16.3c2.3-1.7,3.6-1.7,5.2,1c6,10,12.2,19.9,18.4,29.9c0.9,1.5,1.8,2.9,3,4.8c4.3-5.2,8.3-10.1,12.3-14.9
		c18.7-22.1,38.6-42.9,62.1-60c11.9-8.7,24.6-16,39-19.8c1.2-0.3,2.6-0.6,3.6-0.2c1.7,0.7,1.5,3.6-0.3,4.4
		c-27.7,11.8-46.2,34-64.1,56.7c-15.7,20-29.3,41.4-41.4,63.8C1288.9,358.2,1286.2,364.2,1282.9,370.9"/>
	<path class="st2" d="M1349.9,280.1c-3.6,4.2-7.1,8.7-10.6,13.2c-4.1,5.2-8.1,10.6-12,16.1c0.8,4,1.3,8.1,1.3,12.1
		c0,26.3-17.2,48.7-40.9,56.6l-3.1,6.2l-3.8-4.4c-3.8,0.8-7.7,1.2-11.7,1.2c-32.8,0-59.5-26.7-59.5-59.5c0-32.8,26.7-59.5,59.5-59.5
		c15.1,0,29.5,5.7,40.6,16.1c7.7-8,15.2-15.2,22.7-21.7l-0.3-0.3c-17-16.4-39.4-25.5-63-25.5c-50.1,0-90.9,40.8-90.9,90.9
		c0,50.1,40.8,90.9,90.9,90.9c50.1,0,90.9-40.8,90.9-90.9c0-13.9-3.1-27.2-9.1-39.6L1349.9,280.1z"/>
	<path class="st0" d="M1423.5,148.4l-34.9-13.6c-10.4,15.3-28.2,27.7-47.4,27.7c-30.8,0-55.7-26.5-55.7-56.4
		c0-29.9,24.9-56.2,55.7-56.2c19.2,0,37,12.2,47.4,27.3l34.9-13.6c-16.6-28.4-47.4-47.8-82.3-47.8c-51.4,0-93.4,40.6-93.4,90.4
		c0,50,42,90.6,93.4,90.6C1376.1,196.7,1406.9,177.4,1423.5,148.4 M1511.5,196.5c46.9,0,77.3-29.2,77.3-73.9V18.9h-37.5v103.8
		c0,33-25.1,41.4-39.8,41.4c-15.2,0-40.3-8.4-40.3-41.4V18.9h-37.5v103.8C1433.8,167.3,1464.3,196.5,1511.5,196.5 M1649.8,193.4
		v-54.5h25.6c14.2,19.1,27.3,36.6,41.5,54.5h44.8c-14-18.6-29.9-39.7-44.8-58.6c21.6-9.3,35.3-30.1,35.3-55.5
		c0-35.9-25.4-60.7-62.6-60.7h-77.1v174.8H1649.8z M1649.8,106.1V51.4h39.8c22,0,25.4,18.9,25.4,28c0,18.2-13.8,26.8-25.4,26.8
		H1649.8z M1781.9,140.5l-19.9,28.9c16.1,13.9,40.8,27.3,78.2,27.3c41,0,69-17.9,69-54.3c0-46.9-44.8-50.4-73-56.4
		c-15.6-3.3-34.4-6.2-34.4-18.6c0-13.9,19-17.2,29.9-17.2c16.8,0,34.1,7.2,49.1,17.9l20.9-28.7c-19-14.1-38.2-23.4-68.5-23.4
		c-30.6,0-68.8,11.2-68.8,52.8c0,41.8,46.9,50,68.8,53.6c20.2,3.6,38.6,7.2,38.6,21c0,9.8-11.4,19.4-32,19.4
		C1819.9,162.8,1794.5,151.1,1781.9,140.5 M2006.3,196.7c51.7,0,93.6-40.6,93.6-90.8c0-49.7-42-90.6-93.6-90.6
		c-51.4,0-93.2,40.9-93.2,90.6C1913.1,156.1,1954.8,196.7,2006.3,196.7 M2006.3,49.7c31.1,0,56,26.3,56,56.2
		c0,30.1-24.9,56.7-56,56.7c-30.8,0-56-26.5-56-56.7C1950.3,76,1975.5,49.7,2006.3,49.7 M2127,140.5l-19.9,28.9
		c16.1,13.9,40.8,27.3,78.2,27.3c41,0,69-17.9,69-54.3c0-46.9-44.8-50.4-73-56.4c-15.6-3.3-34.4-6.2-34.4-18.6
		c0-13.9,19-17.2,29.9-17.2c16.8,0,34.1,7.2,49.1,17.9l20.9-28.7c-19-14.1-38.2-23.4-68.5-23.4c-30.6,0-68.8,11.2-68.8,52.8
		c0,41.8,46.9,50,68.8,53.6c20.2,3.6,38.6,7.2,38.6,21c0,9.8-11.4,19.4-32,19.4C2165,162.8,2139.6,151.1,2127,140.5"/>
	<path class="st2" d="M1297.2,194.4c-1.3-0.6-2.5-1.1-3.7-1.7c-1.6,4.2-4.3,6.3-8.2,6.3c-2.4,0-5.9-1.4-10.5-4.3l-7.4-4.6
		c-5.1-3.1-10.7-4.7-16.7-4.7c-14.4,0-22,9.7-22.9,29h15.2c0.7-9.1,4-13.6,9.7-13.6c2.4,0,5.9,1.4,10.5,4.2l7.4,4.6
		c5.1,3.2,10.7,4.8,16.7,4.8c10.6,0,17.5-5.3,20.8-15.7C1304.5,197.4,1300.9,196,1297.2,194.4"/>
</g>
</svg>
